# xmcd CD database file
#
# Track frame offsets:
#	150
#	19351
#	47408
#	59272
#	75006
#	86942
#	101250
#	118579
#	136850
#	158769
#	171220
#	189509
#	202193
#	217793
#	239627
#	256638
#	273494
#	291225
#	305228
#
# Disc length: 4337 seconds
#
# Revision: 0
# Processed by: cddbd v1.5.2PL0 Copyright (c) Steve Scherf et al.
# Submitted via: CDex 1.51
#
DISCID=0810ef13
DTITLE=Various Artist - Hard hittin' blues
DYEAR=2000
DGENRE=Blues
TTITLE0=Tore down - Freddie King
TTITLE1=All your love - Stevie Ray Vaughan
TTITLE2=Hideaway - Freddie King
TTITLE3=I ain't superstitious - Pat Travers
TTITLE4=Sanhozay - Freddie King
TTITLE5=Born under a bad sign - Monaco Blues Band
TTITLE6=Help me - Johnny Winter
TTITLE7=Wang dang doodle - Livin' Blues
TTITLE8=I can't quit you baby - Pat Travers
TTITLE9=Let me love you you baby - Stevie Ray Vaughan
TTITLE10=Louisiana Blues - Paul Rodgers
TTITLE11=Mary had a little lamb - Stevie Ray Vaughan
TTITLE12=Oh pretty woman - Spooky Tooth
TTITLE13=She moves me - Paul Rodgers
TTITLE14=She's alright - Paul Rodgers
TTITLE15=Rock me baby - Jeff Beck Group
TTITLE16=Good morning little schollgirl - Johnny Winter
TTITLE17=The Stumble - Jeff Beck
TTITLE18=Sittin' on top of the world - Pat Travers
EXTD=YEAR: 2000
EXTT0=
EXTT1=
EXTT2=
EXTT3=
EXTT4=
EXTT5=
EXTT6=
EXTT7=
EXTT8=
EXTT9=
EXTT10=
EXTT11=
EXTT12=
EXTT13=
EXTT14=
EXTT15=
EXTT16=
EXTT17=
EXTT18=
PLAYORDER=
